<svg width="22" height="21" viewBox="0 0 22 21" fill="none" xmlns="http://www.w3.org/2000/svg">
<path d="M17.6884 5.19255C17.6884 5.34992 17.6574 5.50576 17.5972 5.65114C17.537 5.79653 17.4486 5.92864 17.3375 6.03992C17.2262 6.1512 17.094 6.23946 16.9486 6.29969C16.8033 6.35991 16.6474 6.39091 16.4901 6.39091C16.3327 6.39091 16.1769 6.35991 16.0315 6.29969C15.8861 6.23946 15.754 6.1512 15.6427 6.03992C15.5314 5.92864 15.4431 5.79653 15.383 5.65114C15.3227 5.50576 15.2917 5.34992 15.2917 5.19255C15.2917 4.87473 15.4179 4.56993 15.6427 4.34519C15.8675 4.12046 16.1722 3.9942 16.4901 3.9942C16.8079 3.9942 17.1127 4.12046 17.3375 4.34519C17.5621 4.56993 17.6884 4.87473 17.6884 5.19255ZM21.4931 10.602V10.6175L21.4246 14.9606C21.4071 16.5268 20.7771 18.0241 19.6696 19.1318C18.5622 20.2395 17.0651 20.8698 15.4988 20.8876L11.1402 20.9549H11.1246L6.78159 20.8863C5.21528 20.8689 3.71804 20.2389 2.61031 19.1315C1.50257 18.024 0.872352 16.5268 0.854526 14.9606L0.787231 10.602V10.5864L0.85582 6.24338C0.873303 4.67707 1.50319 3.17983 2.61069 2.0721C3.71818 0.964363 5.21528 0.33414 6.78159 0.31632L11.1402 0.249023H11.1557L15.4988 0.317614C17.0651 0.335098 18.5624 0.964984 19.67 2.07248C20.7778 3.17997 21.408 4.67707 21.4258 6.24338L21.4931 10.602ZM19.5649 10.602L19.4976 6.27314C19.4854 5.20845 19.0571 4.19078 18.3043 3.43787C17.5514 2.68498 16.5337 2.25666 15.469 2.24456L11.1402 2.17726L6.81135 2.24456C5.74666 2.25666 4.72899 2.68498 3.97608 3.43787C3.22319 4.19078 2.79487 5.20845 2.78277 6.27314L2.71547 10.602L2.78277 14.9308C2.79487 15.9955 3.22319 17.0132 3.97608 17.7661C4.72899 18.519 5.74666 18.9472 6.81135 18.9594L11.1402 19.0267L15.469 18.9594C16.5337 18.9472 17.5514 18.519 18.3043 17.7661C19.0571 17.0132 19.4854 15.9955 19.4976 14.9308L19.5649 10.602ZM16.4564 10.602C16.4564 12.0119 15.8963 13.3641 14.8994 14.3611C13.9024 15.3581 12.5501 15.9182 11.1402 15.9182C9.73022 15.9182 8.37801 15.3581 7.38102 14.3611C6.38404 13.3641 5.82394 12.0119 5.82394 10.602C5.82394 9.19201 6.38404 7.8398 7.38102 6.84281C8.37801 5.84583 9.73022 5.28573 11.1402 5.28573C12.5501 5.28573 13.9024 5.84583 14.8994 6.84281C15.8963 7.8398 16.4564 9.19201 16.4564 10.602ZM14.5282 10.602C14.5282 9.70341 14.1713 8.84166 13.5359 8.20628C12.9005 7.57091 12.0387 7.21397 11.1402 7.21397C10.2416 7.21397 9.37987 7.57091 8.74449 8.20628C8.10912 8.84166 7.75218 9.70341 7.75218 10.602C7.75218 11.5005 8.10912 12.3622 8.74449 12.9976C9.37987 13.6331 10.2416 13.99 11.1402 13.99C12.0387 13.99 12.9005 13.6331 13.5359 12.9976C14.1713 12.3622 14.5282 11.5005 14.5282 10.602Z" fill="white"/>
</svg>
